<svg preserveAspectRatio="none" overflow="visible" style="display: block;" width="28" height="28" viewBox="0 0 28 28" fill="none" xmlns="http://www.w3.org/2000/svg">
<g id="logo-icon">
<rect width="28" height="28" rx="8" fill="white"/>
<path id="Ellipse" d="M20 14C20 14.7879 19.8448 15.5681 19.5433 16.2961C19.2417 17.0241 18.7998 17.6855 18.2426 18.2426C17.6855 18.7998 17.0241 19.2417 16.2961 19.5433C15.5681 19.8448 14.7879 20 14 20C13.2121 20 12.4319 19.8448 11.7039 19.5433C10.9759 19.2417 10.3145 18.7998 9.75736 18.2426C9.20021 17.6855 8.75825 17.0241 8.45672 16.2961C8.15519 15.5681 8 14.7879 8 14L11 14C11 14.394 11.0776 14.7841 11.2284 15.1481C11.3791 15.512 11.6001 15.8427 11.8787 16.1213C12.1573 16.3999 12.488 16.6209 12.8519 16.7716C13.2159 16.9224 13.606 17 14 17C14.394 17 14.7841 16.9224 15.1481 16.7716C15.512 16.6209 15.8427 16.3999 16.1213 16.1213C16.3999 15.8427 16.6209 15.512 16.7716 15.1481C16.9224 14.7841 17 14.394 17 14H20Z" fill="#0B0B0F"/>
</g>
</svg>
